<svg width="14" height="20" viewBox="0 0 14 20" xmlns="http://www.w3.org/2000/svg">
    <g fill="#3F7C5C" fill-rule="evenodd">
        <path d="M12 1H2v5c0 .3.1.5.3.7L5.6 10l-3.3 3.3c-.2.2-.3.4-.3.7v5h10v-5c0-.3-.1-.5-.3-.7L8.4 10l3.3-3.3c.2-.2.3-.4.3-.7V1z" fill-rule="nonzero" opacity=".3"/>
        <path d="M1 2c-.6 0-1-.4-1-1s.4-1 1-1h12c.6 0 1 .4 1 1s-.4 1-1 1H1zm9 16v-2l-2.3-2.3c-.4-.4-1-.4-1.4 0L4 16v2H1c-.6 0-1 .4-1 1s.4 1 1 1h12c.6 0 1-.4 1-1s-.4-1-1-1h-3zM6.3 7.9c.4.4 1 .4 1.4 0L9.6 6H4.4l1.9 1.9z"/>
    </g>
</svg>
