<svg width="11" height="12" viewBox="0 0 11 12" xmlns="http://www.w3.org/2000/svg">
    <g fill="#FF3559" fill-rule="nonzero">
        <path d="M9.816.713H7.06V.566C7.06.086 6.703 0 6.27 0H4.003c-.435 0-.789.086-.789.566v.147H.47a.446.446 0 0 0-.333.153.552.552 0 0 0-.137.37v1.007c0 .288.21.522.47.522h9.346c.26 0 .47-.234.47-.522V1.235c0-.288-.21-.522-.47-.522z" opacity=".459"/>
        <path d="M8.83 4.152H1.456a.452.452 0 0 0-.35.178.563.563 0 0 0-.113.41l.757 6.36c.058.512.448.897.912.9h4.964c.465-.001.857-.386.916-.9l.755-6.36a.562.562 0 0 0-.113-.411.45.45 0 0 0-.352-.177z"/>
    </g>
</svg>
