<svg width="18" height="18" viewBox="0 0 18 18" xmlns="http://www.w3.org/2000/svg">
    <g fill="#92929D" fill-rule="evenodd" opacity=".99">
        <path d="M5.423 12.683a.417.417 0 1 1 .499-.667c1.667 1.248 4.54 1.256 6.16.004a.417.417 0 0 1 .51.66c-1.92 1.482-5.205 1.473-7.17.003zM6.5 8.167a.833.833 0 1 0 0-1.667.833.833 0 0 0 0 1.667zM11.5 8.167a.833.833 0 1 0 0-1.667.833.833 0 0 0 0 1.667z" fill-rule="nonzero"/>
        <path d="M.25 9a8.75 8.75 0 1 0 17.5 0A8.75 8.75 0 0 0 .25 9zm16.667 0A7.917 7.917 0 1 1 1.083 9a7.917 7.917 0 0 1 15.834 0z"/>
    </g>
</svg>
