<svg width="20" height="20" viewBox="0 0 20 20" xmlns="http://www.w3.org/2000/svg">
    <g fill="#3F7C5C" fill-rule="evenodd">
        <path d="M1 20c-.6 0-1-.4-1-1V3c0-.6.4-1 1-1h18c.6 0 1 .4 1 1v16c0 .6-.4 1-1 1H1z" fill-rule="nonzero" opacity=".3"/>
        <path d="M3 3V1c0-.6.4-1 1-1s1 .4 1 1v2c0 .6-.4 1-1 1s-1-.4-1-1zm6-2c0-.6-.4-1-1-1S7 .4 7 1v2c0 .6.4 1 1 1s1-.4 1-1V1zm4 0c0-.6-.4-1-1-1s-1 .4-1 1v2c0 .6.4 1 1 1s1-.4 1-1V1zm4 0c0-.6-.4-1-1-1s-1 .4-1 1v2c0 .6.4 1 1 1s1-.4 1-1V1zM7.7 10.8c.2-.2.4-.5.4-.9 0-.3-.1-.6-.3-.8-.2-.2-.5-.3-.8-.3-.2 0-.4 0-.6.1-.2.1-.3.2-.4.3-.1.1-.2.2-.3.4-.1.2-.2.3-.2.5 0 .1-.1.1-.2.2s-.2.1-.4.1-.3-.1-.4-.2c-.1-.1-.2-.3-.2-.5s.1-.4.2-.6c.1-.2.3-.4.5-.6.2-.2.5-.4.9-.5.4-.1.7-.2 1.2-.2.4 0 .7.1 1 .2.3.1.6.3.8.4.2.1.4.4.5.7.1.3.2.5.2.8 0 .4-.1.7-.3 1-.2.3-.4.6-.7.8.3.2.6.4.8.6.2.2.4.4.5.7.1.3.2.5.2.8 0 .4-.1.7-.2 1-.1.3-.4.6-.6.9-.2.3-.6.5-1 .6-.4.1-.8.2-1.3.2s-.9-.1-1.3-.3c-.4-.2-.7-.4-.9-.6-.2-.2-.4-.5-.5-.8-.1-.3-.2-.5-.2-.7 0-.2.1-.4.2-.5.1-.1.3-.2.5-.2.1 0 .2 0 .3.1.1.1.2.1.2.2.2.5.4.9.7 1.2.3.3.6.4 1 .4.2 0 .5-.1.7-.2.2-.1.4-.3.6-.5.2-.2.2-.5.2-.8 0-.5-.1-.8-.4-1.1-.3-.3-.6-.4-1-.4h-.7c-.2 0-.4-.1-.5-.2-.1-.1-.2-.3-.2-.4 0-.2.1-.3.2-.5s.3-.2.6-.2h.3v.1c.4 0 .7-.1.9-.3zm5.6-.6c-1 .8-1.7 1.1-2 1.1-.2 0-.3-.1-.4-.2-.1-.1-.2-.3-.2-.5s.1-.3.2-.4c.1-.1.3-.2.7-.4.5-.2.9-.5 1.1-.7l.8-.8c.3-.3.4-.5.4-.6 0-.1.2-.1.4-.1s.4.1.5.2c.1.1.2.4.2.7v6.7c0 .8-.3 1.2-.8 1.2-.2 0-.4-.1-.6-.2-.2-.1-.3-.4-.3-.7v-5.3z"/>
    </g>
</svg>
