<svg width="24" height="24" viewBox="0 0 24 24" xmlns="http://www.w3.org/2000/svg" xmlns:xlink="http://www.w3.org/1999/xlink">
    <defs>
        <path id="vyfx1wkx5a" d="M0 0h24v24H0z"/>
    </defs>
    <g fill="none" fill-rule="evenodd" opacity=".99">
        <mask id="3ya0lvbd5b" fill="#fff">
            <use xlink:href="#vyfx1wkx5a"/>
        </mask>
        <g fill="#878C90" fill-rule="nonzero" mask="url(#3ya0lvbd5b)">
            <path d="M12 20.27c3.53 0 6.82-2.08 9.11-5.68.9-1.41.9-3.78 0-5.19-2.29-3.6-5.58-5.68-9.11-5.68-3.53 0-6.82 2.08-9.11 5.68-.9 1.41-.9 3.78 0 5.19 2.29 3.6 5.58 5.68 9.11 5.68z" opacity=".4"/>
            <path d="M15.58 12c0 1.98-1.6 3.58-3.58 3.58S8.42 13.98 8.42 12s1.6-3.58 3.58-3.58 3.58 1.6 3.58 3.58z"/>
        </g>
    </g>
</svg>
