<svg width="16" height="19" viewBox="0 0 16 19" xmlns="http://www.w3.org/2000/svg">
    <g fill-rule="nonzero" fill="none">
        <path d="M5.69.194a.723.723 0 0 1 .989.003c.985.925 1.91 1.922 2.775 3 .392-.514.839-1.075 1.321-1.532a.726.726 0 0 1 1 .004c1.236 1.178 2.282 2.735 3.018 4.214C15.518 7.34 16 8.829 16 9.879c0 4.558-3.564 8.408-8 8.408-4.486 0-8-3.854-8-8.411 0-1.372.636-3.047 1.621-4.704C2.618 3.49 4.025 1.737 5.69.194z" fill="#FF3559"/>
        <path d="M8.06 14.858c.904 0 1.704-.25 2.458-.75 1.503-1.05 1.907-3.15 1.003-4.8-.16-.321-.571-.343-.803-.071l-.9 1.046a.572.572 0 0 1-.882-.018c-.59-.75-1.643-2.09-2.243-2.85a.561.561 0 0 0-.882-.003c-1.207 1.517-1.815 2.475-1.815 3.55.004 2.446 1.811 3.896 4.065 3.896z" fill="#FFF"/>
    </g>
</svg>
