<svg width="24" height="24" viewBox="0 0 24 24" xmlns="http://www.w3.org/2000/svg" xmlns:xlink="http://www.w3.org/1999/xlink">
    <defs>
        <path id="pcup5p22xa" d="M0 0h24v24H0z"/>
    </defs>
    <g fill="none" fill-rule="evenodd" opacity=".99">
        <mask id="dqjhpt99lb" fill="#fff">
            <use xlink:href="#pcup5p22xa"/>
        </mask>
        <g mask="url(#dqjhpt99lb)" fill="#FF3559" fill-rule="nonzero">
            <path d="M11.702 22c5.523 0 10-4.477 10-10s-4.477-10-10-10-10 4.477-10 10 4.477 10 10 10z" opacity=".4"/>
            <path d="M12.032 17c-.18.06-.49.06-.67 0-1.56-.53-5.06-2.76-5.06-6.54 0-1.67 1.34-3.02 3-3.02.98 0 1.85.47 2.4 1.21.54-.73 1.42-1.21 2.4-1.21 1.66 0 3 1.35 3 3.02 0 3.78-3.5 6.01-5.07 6.54z" opacity=".99"/>
        </g>
    </g>
</svg>
