<svg width="50" height="50" viewBox="0 0 50 50" xmlns="http://www.w3.org/2000/svg">
    <g fill="#DDBE69" fill-rule="nonzero">
        <path d="M.697 19.185C2.833 9.505 11.92.143 24.704.002c13.09-.145 22.424 9.343 24.601 19.177-.05.006-.098.016-.146.016-1.31 0-2.62-.001-3.93.003-.124 0-.169-.049-.202-.159a20.573 20.573 0 0 0-2.206-4.95 20.974 20.974 0 0 0-2.537-3.332 20.87 20.87 0 0 0-5.613-4.285A20.52 20.52 0 0 0 28.2 4.348c-.324-.05-.65-.086-.976-.132-.111-.016-.173.01-.163.137.006.07 0 .14 0 .21V41.25c0 .297.025.276-.271.276h-3.591c-.247 0-.247 0-.247-.244V4.511c0-.303.053-.318-.297-.279A20.718 20.718 0 0 0 16 6.137a20.878 20.878 0 0 0-5.052 3.4 20.773 20.773 0 0 0-3.167 3.63 20.619 20.619 0 0 0-2.805 5.87c-.032.11-.076.161-.202.161-1.314-.004-2.628-.003-3.943-.003-.04 0-.082-.006-.134-.01"/>
        <path d="m44.165 24.41 3.83.001c.615 0 1.23.015 1.844.018.113 0 .156.034.158.152a24.902 24.902 0 0 1-1.108 7.799 24.751 24.751 0 0 1-4.61 8.528 24.881 24.881 0 0 1-7.132 5.937 24.779 24.779 0 0 1-7.417 2.698c-.991.19-1.99.337-2.999.379-.871.036-1.745.07-2.616.048a23.583 23.583 0 0 1-4.627-.59 24.79 24.79 0 0 1-6.075-2.232 25.013 25.013 0 0 1-4.674-3.17 24.946 24.946 0 0 1-4.956-5.763A24.748 24.748 0 0 1 .67 30.752a25.102 25.102 0 0 1-.668-6.183c.001-.104.038-.14.14-.14 1.277.003 2.554.003 3.83 0 .116 0 .142.049.143.153.003.422.008.845.021 1.266.04 1.313.222 2.608.52 3.886a20.66 20.66 0 0 0 2.852 6.67 20.956 20.956 0 0 0 3.184 3.8 20.766 20.766 0 0 0 5.005 3.493 20.755 20.755 0 0 0 6.358 1.976 20.72 20.72 0 0 0 3.818.189 20.646 20.646 0 0 0 8.291-2.098 20.84 20.84 0 0 0 5.307-3.715 20.88 20.88 0 0 0 6.09-11.347c.03-.166.017-.18-.179-.18H32.258c-.204 0-.205-.001-.205-.201v-3.718c0-.19.001-.19.2-.19l8.068-.001 3.844-.002z"/>
    </g>
</svg>
