<svg width="20" height="20" viewBox="0 0 20 20" xmlns="http://www.w3.org/2000/svg">
    <g fill="#3F7C5C" fill-rule="evenodd">
        <path d="M10 2a8 8 0 1 0 0 16 8 8 0 0 0 0-16zM0 10C0 4.477 4.477 0 10 0s10 4.477 10 10-4.477 10-10 10S0 15.523 0 10z"/>
        <path d="M9 7.5a1.5 1.5 0 1 1-3 0 1.5 1.5 0 0 1 3 0z" fill-rule="nonzero"/>
        <path d="M7.5 8a.5.5 0 1 0 0-1 .5.5 0 0 0 0 1zm0 1a1.5 1.5 0 1 0 0-3 1.5 1.5 0 0 0 0 3z"/>
        <path d="M14 7.5a1.5 1.5 0 1 1-3 0 1.5 1.5 0 0 1 3 0z" fill-rule="nonzero"/>
        <path d="M12.5 8a.5.5 0 1 0 0-1 .5.5 0 0 0 0 1zm0 1a1.5 1.5 0 1 0 0-3 1.5 1.5 0 0 0 0 3zM5.427 11.18a1 1 0 0 1 1.392.247c.49.698 1.394 1.495 2.472 1.719.984.204 2.35-.02 3.966-1.815a1 1 0 0 1 1.486 1.338c-1.984 2.205-4.034 2.814-5.859 2.435-1.73-.36-3.026-1.563-3.703-2.53a1 1 0 0 1 .246-1.393z"/>
    </g>
</svg>
