<svg width="20" height="20" viewBox="0 0 24 20" xmlns="http://www.w3.org/2000/svg">
    <g fill="#878C90" fill-rule="nonzero">
        <path d="M19.746 6.97a3.485 3.485 0 0 1 3.485 3.484v3.485a3.485 3.485 0 0 1-3.485 3.484v1.122c0 1.231-1.435 1.904-2.38 1.115l-2.686-2.237h-3.065a3.485 3.485 0 0 1-3.484-3.484v-3.485a3.485 3.485 0 0 1 3.484-3.485h8.131z" opacity=".3"/>
        <path d="M16.262 0a3.485 3.485 0 0 1 3.484 3.485v1.161h-9.292a4.646 4.646 0 0 0-4.646 4.646v4.647c0 1.212.464 2.318 1.226 3.145l-1.226.92c-.957.718-2.323.035-2.323-1.162V15.1A3.485 3.485 0 0 1 0 11.615v-8.13A3.485 3.485 0 0 1 3.485 0h12.777z"/>
    </g>
</svg>
