<svg width="20" height="20" viewBox="0 0 20 20" xmlns="http://www.w3.org/2000/svg">
    <g fill="#3F7C5C" fill-rule="evenodd">
        <path d="M7 5h7V1c0-.6-.4-1-1-1H1C.4 0 0 .4 0 1v10c0 .6.4 1 1 1h2v2.1c0 .7.8 1 1.3.5L6 12.9V6c0-.6.4-1 1-1z" fill-rule="nonzero" opacity=".3"/>
        <path d="M20 16c0 .6-.4 1-1 1h-2v2.1c0 .7-.8 1-1.3.5L13 16.9H7c-.6 0-1-.4-1-1v-10c0-.6.4-1 1-1h12c.6.1 1 .5 1 1.1v10zm-4-8h-6c-.6 0-1 .4-1 1s.4 1 1 1h6c.6 0 1-.4 1-1s-.4-1-1-1zm-2 4h-4c-.6 0-1 .4-1 1s.4 1 1 1h4c.6 0 1-.4 1-1s-.4-1-1-1z"/>
    </g>
</svg>
