<svg width="16" height="16" viewBox="0 0 16 16" xmlns="http://www.w3.org/2000/svg">
    <g fill="#92929D" fill-rule="evenodd">
        <path d="M13.766 6.861 9.14 2.234 10.894.479a1.637 1.637 0 0 1 2.314 0l2.313 2.313a1.637 1.637 0 0 1 0 2.314l-1.755 1.755zm-7.42 7.34L1.72 9.575.043 14.521c-.24.877.559 1.675 1.357 1.356l4.946-1.675z" opacity=".3"/>
        <path d="M1.4 15.877c-.798.24-1.596-.479-1.277-1.276l.479-1.516 2.313 2.313-1.515.48zm4.946-1.596 7.5-7.5-4.628-4.627-7.5 7.5 4.628 4.627z"/>
    </g>
</svg>
