<svg width="18" height="18" viewBox="0 0 18 18" xmlns="http://www.w3.org/2000/svg">
    <path d="M17.75 14.542c0 1.546-1.31 2.791-2.917 2.791H3.167C1.56 17.333.25 16.088.25 14.542V3.458C.25 1.912 1.56.667 3.167.667h11.666c1.607 0 2.917 1.245 2.917 2.791v11.084zm-.833-2.983-3.928-3.58-3.929 3.545 4.49 4.976h1.283c1.156 0 2.084-.882 2.084-1.958v-2.983zm0-1.127V3.458c0-1.076-.928-1.958-2.084-1.958H3.167c-1.156 0-2.084.882-2.084 1.958v10.08l4.845-4.833a.417.417 0 0 1 .604.016l1.97 2.184 4.21-3.798a.417.417 0 0 1 .559.002l3.646 3.323zm-4.49 6.068-6.22-6.896-5.116 5.103c.089 1 .98 1.793 2.076 1.793h9.26zM5.826 6.25a1.606 1.606 0 0 1-1.607-1.604c0-.886.72-1.604 1.607-1.604.888 0 1.608.718 1.608 1.604 0 .886-.72 1.604-1.608 1.604zm0-.833a.772.772 0 0 0 .774-.771.772.772 0 0 0-.774-.771.772.772 0 0 0-.773.77c0 .426.346.772.773.772z" fill="#92929D" fill-rule="evenodd" opacity=".99"/>
</svg>
