<?xml version="1.0" encoding="UTF-8"?>
<svg width="16px" height="16px" viewBox="0 0 16 16" version="1.1" xmlns="http://www.w3.org/2000/svg" xmlns:xlink="http://www.w3.org/1999/xlink">
    <title>com009</title>
    <g id="Page-1" stroke="none" stroke-width="1" fill="none" fill-rule="evenodd">
        <g id="feed" transform="translate(-1059, -55)" fill="#3F7C5C" fill-rule="nonzero">
            <g id="com009" transform="translate(1059, 55)">
                <path d="M1.01876745,15.9523616 C0.377467258,16.1928492 -0.183655723,15.5514903 0.0568318547,14.9903526 L0.698122252,12.9862896 L4.14512531,9.53935978 L6.46983397,11.8640925 L3.02283042,15.3110223 L1.01876745,15.9523616 Z" id="Vector" opacity="0.300000012"></path>
                <path d="M11.1192574,0.240487578 C10.7986073,-0.080162518 10.3176371,-0.080162518 9.99698696,0.240487578 L9.43583951,0.801586096 C9.11518942,1.12223619 9.11518942,1.60323084 9.43583951,1.92388094 L9.99698696,2.48497946 L7.43177644,5.05023909 C5.58803845,4.16845132 3.34348762,4.48906231 1.8203997,6.01215022 C1.49974961,6.33280032 1.49974961,6.81379502 1.8203997,7.13444511 L8.79454911,14.1085447 C9.11519921,14.4291948 9.59616944,14.4291948 9.91681954,14.1085447 C11.4399075,12.5854568 11.7605674,10.3409068 10.8787796,8.49716886 L13.4439657,5.93200727 L14.0051131,6.49310579 C14.3257632,6.81375588 14.8067327,6.81375588 15.1273828,6.49310579 L15.6885302,5.93200727 C16.0893428,5.69151969 16.0893477,5.21050543 15.7686976,4.88985533 L11.1192574,0.240487578 Z" id="Vector"></path>
            </g>
        </g>
    </g>
</svg>