<?xml version="1.0" encoding="UTF-8"?>
<svg width="20px" height="20px" viewBox="0 0 20 20" version="1.1" xmlns="http://www.w3.org/2000/svg" xmlns:xlink="http://www.w3.org/1999/xlink">
    <title>gra005</title>
    <g id="Page-1" stroke="none" stroke-width="1" fill="none" fill-rule="evenodd">
        <g id="feed" transform="translate(-808, -280)" fill="#3F7C5C">
            <g id="gra005" transform="translate(818, 290) scale(1, -1) rotate(90) translate(-818, -290)translate(808, 280)">
                <g id="Group" opacity="0.300000012" transform="translate(2, 0)">
                    <path d="M10,19 L6,19 L6,10 C6,9.39999998 6.39999998,9 7,9 L9,9 C9.60000002,9 10,9.39999998 10,10 L10,19 Z M1,0 C0.399999976,0 0,0.399999976 0,1 L0,19 L4,19 L4,1 C4,0.399999976 3.60000002,0 3,0 L1,0 Z" id="Vector"></path>
                </g>
                <path d="M18,18 L18,14 C18,13.4 17.6,13 17,13 L15,13 C14.4,13 14,13.4 14,14 L14,18 L1,18 C0.399999976,18 0,18.4 0,19 C0,19.6 0.399999976,20 1,20 L19,20 C19.6,20 20,19.6 20,19 C20,18.4 19.6,18 19,18 L18,18 Z" id="Vector" fill-rule="nonzero"></path>
            </g>
        </g>
    </g>
</svg>