<?xml version="1.0" encoding="UTF-8"?>
<svg width="12px" height="12px" viewBox="0 0 12 12" version="1.1" xmlns="http://www.w3.org/2000/svg" xmlns:xlink="http://www.w3.org/1999/xlink">
    <title>world</title>
    <g id="Page-1" stroke="none" stroke-width="1" fill="none" fill-rule="evenodd">
        <g id="feed" transform="translate(-474, -390)" fill="#3F7C5C" fill-rule="nonzero">
            <g id="world" transform="translate(474, 390)">
                <path d="M6,0 C9.3138,0 12,2.6862 12,6 C12,9.3138 9.3138,12 6,12 C2.6862,12 0,9.3138 0,6 C0,2.6862 2.6862,0 6,0 Z" id="Path" opacity="0.3"></path>
                <path d="M6,1.1999967 C4.51161902,1.19882391 3.10715817,1.88919346 2.199,3.0684 L2.1,3.201 L2.1,4.212 C2.1,4.962 2.565,5.6334 3.267,5.8974 L3.3738,5.9334 L4.1478,6.1704 C4.9716,6.4224 5.7738,5.7522 5.694,4.9128 L5.6826,4.8258 L5.5776,4.1964 C5.52969756,3.90857369 5.69580439,3.62801519 5.9712,3.5316 L6.036,3.5136 L6.4032,3.4296 C6.82410787,3.33339413 7.18827757,3.07118168 7.41300419,2.70251251 C7.63773081,2.33384335 7.7039417,1.8900066 7.5966,1.4718 C7.08367481,1.2912738 6.54376609,1.19936149 6,1.1999967 L6,1.1999967 Z M7.2,6.84 L6.2616,7.5906 C6.19498074,7.64392552 6.15422291,7.72309797 6.14952754,7.80830179 C6.14483217,7.8935056 6.17664362,7.97667717 6.237,8.037 L6.9804,8.7804 C7.1244,8.9244 7.2294,9.1032 7.2852,9.2988 L7.3902,9.6666 C7.4784,9.9792 7.7022,10.2354 8.0004,10.3644 C8.5743019,10.1006207 9.09070645,9.72651791 9.5202,9.2634 L9.3798,8.1372 C9.32990153,7.73926481 9.08450809,7.39256214 8.7258,7.2132 L7.8438,6.7716 C7.63425462,6.66672997 7.38283262,6.69344209 7.2,6.84 L7.2,6.84 Z" id="Shape"></path>
            </g>
        </g>
    </g>
</svg>