<svg width="21" height="20" viewBox="0 0 21 20" xmlns="http://www.w3.org/2000/svg">
    <g fill="#3F7C5C" fill-rule="evenodd">
        <path d="M18.947.013c.6-.1 1.2.4 1.1 1.1-1.2 7.4-5.8 12.6-13.2 16.9l-4.8-4.8c4.3-7.4 9.5-11.9 16.9-13.2zm-18.4 18.4c-.2.6.3 1.1.9.9l3.1-1.2-2.8-2.8-1.2 3.1zm12.4-12.9c0 .8.7 1.5 1.5 1.5s1.5-.7 1.5-1.5-.7-1.5-1.5-1.5-1.5.7-1.5 1.5z" opacity=".3"/>
        <path d="M.247 11.413c-.4-.4-.3-1.1.2-1.3l6.7-3.8c-1.9 1.9-3.6 4.2-5.1 6.9l-1.8-1.8zm8.3 8.3c.4.4 1.1.3 1.3-.2l3.8-6.7c-1.9 1.9-4.2 3.6-6.9 5.1l1.8 1.8zm1.9-9c.3-.3.3-.9 0-1.2-.3-.3-.9-.3-1.2 0l-5.5 5.5 1.2 1.2 5.5-5.5z"/>
    </g>
</svg>
