<?xml version="1.0" encoding="UTF-8"?>
<svg width="16px" height="16px" viewBox="0 0 16 16" version="1.1" xmlns="http://www.w3.org/2000/svg" xmlns:xlink="http://www.w3.org/1999/xlink">
    <title>gen004</title>
    <g id="Page-1" stroke="none" stroke-width="1" fill="none" fill-rule="evenodd">
        <g id="portfolio-list" transform="translate(-315, -196)" fill="#231F20">
            <g id="Group-3" transform="translate(300, 182)">
                <g id="gen004" transform="translate(15, 14)">
                    <g id="Group" transform="translate(11.04, 11.04)" fill-rule="nonzero">
                        <path d="M2.23999763,0 C1.67999885,0.879998131 0.879998131,1.67999274 0,2.23999153 L2.47998735,4.71998499 C2.79998667,5.03998431 3.27999296,5.03998431 3.59999228,4.71998499 L4.71998499,3.59999228 C5.03998431,3.27999296 5.03998431,2.79999278 4.71998499,2.47999346 L2.23999763,0 Z" id="Vector"></path>
                    </g>
                    <g id="Group" opacity="0.300000012">
                        <path d="M0,7.19998455 C0,3.19999313 3.19999313,0 7.19998455,0 C11.199976,0 14.3999691,3.19999313 14.3999691,7.19998455 C14.3999691,11.199976 11.199976,14.3999691 7.19998455,14.3999691 C3.19999313,14.3999691 0,11.199976 0,7.19998455 Z M1.59999657,7.19998455 C1.59999657,10.3199779 4.07999117,12.7999725 7.19998455,12.7999725 C10.3199779,12.7999725 12.7999725,10.3199779 12.7999725,7.19998455 C12.7999725,4.07999117 10.3199779,1.59999657 7.19998455,1.59999657 C4.07999117,1.59999657 1.59999657,4.07999117 1.59999657,7.19998455 Z" id="Vector" opacity="0.802850632"></path>
                    </g>
                </g>
            </g>
        </g>
    </g>
</svg>