<svg width="30" height="30" viewBox="0 0 29 30" xmlns="http://www.w3.org/2000/svg">
    <g fill="#3F7C5C" fill-rule="nonzero">
        <path d="M11.75 16.366c-.353.07-.636.353-.778.636l-1.98 5.516c-.07.353-.07.778.213 1.06.282.283.707.283 1.06.212l17.607-7.848c.354-.213.637-.495.566-.849l-8.698-.07-7.99 1.343z"/>
        <path d="M10.477 6.325c-.353-.212-.777-.07-1.06.212-.283.283-.425.707-.212 1.06l1.98 5.516c.07.354.424.566.777.637l7.99 1.343h8.91c-.212-.495-.424-.848-.778-.92L10.477 6.326z" opacity=".3"/>
    </g>
</svg>
