<?xml version="1.0" encoding="UTF-8"?>
<svg width="14px" height="20px" viewBox="0 0 14 20" version="1.1" xmlns="http://www.w3.org/2000/svg" xmlns:xlink="http://www.w3.org/1999/xlink">
    <title>56B2B23C-832C-4B36-804D-B5E9D54B7B3C</title>
    <g id="Page-1" stroke="none" stroke-width="1" fill="none" fill-rule="evenodd">
        <g id="Profile" transform="translate(-632, -778)" fill="#3F7C5C">
            <g id="gen012" transform="translate(632, 778)">
                <path d="M12,1 L2,1 L2,6 C2,6.30000001 2.10000305,6.5 2.30000305,6.69999695 L5.59999847,10 L2.30000305,13.3000031 C2.10000305,13.5 2,13.7 2,14 L2,19 L12,19 L12,14 C12,13.7 11.899997,13.5 11.6999969,13.3000031 L8.40000153,10 L11.6999969,6.69999695 C11.899997,6.5 12,6.30000001 12,6 L12,1 Z" id="Vector" fill-rule="nonzero" opacity="0.300000012"></path>
                <path d="M1,2 C0.399999976,2 0,1.60000002 0,1 C0,0.399999976 0.399999976,0 1,0 L13,0 C13.6,0 14,0.399999976 14,1 C14,1.60000002 13.6,2 13,2 L1,2 Z M10,18 L10,16 L7.69999695,13.6999969 C7.29999694,13.2999969 6.70000306,13.2999969 6.30000305,13.6999969 L4,16 L4,18 L1,18 C0.399999976,18 0,18.4 0,19 C0,19.6 0.399999976,20 1,20 L13,20 C13.6,20 14,19.6 14,19 C14,18.4 13.6,18 13,18 L10,18 Z M6.30000305,7.8999939 C6.70000306,8.2999939 7.29999694,8.2999939 7.69999695,7.8999939 L9.59999847,6 L4.40000153,6 L6.30000305,7.8999939 Z" id="Vector"></path>
            </g>
        </g>
    </g>
</svg>