<svg width="20" height="20" viewBox="0 0 20 20" xmlns="http://www.w3.org/2000/svg">
    <g fill="#fff" fill-rule="nonzero">
        <ellipse opacity=".3" cx="7.03" cy="4.7" rx="4.74" ry="4.7"/>
        <ellipse cx="7.03" cy="15.3" rx="7.03" ry="4.7"/>
        <path d="M14.39 2c-.55 0-1.093.124-1.59.36a6.09 6.09 0 0 1-.92 6.18A3.76 3.76 0 1 0 14.39 2z" opacity=".3"/>
        <path d="M14.39 10.5a8.22 8.22 0 0 0-1.67.17 5.59 5.59 0 0 1 2.83 4.63 4.88 4.88 0 0 1-.83 2.7c2.94-.11 5.28-1.74 5.28-3.74s-2.51-3.76-5.61-3.76z"/>
    </g>
</svg>
