<svg width="16" height="20" viewBox="0 0 16 20" xmlns="http://www.w3.org/2000/svg">
    <g fill="#3F7C5C" fill-rule="evenodd">
        <path d="M9.95.1c.47.236.66.807.425 1.278l-.739 1.479h3.698c1.052 0 1.904.853 1.904 1.905v13.333A1.905 1.905 0 0 1 13.334 20H1.904A1.905 1.905 0 0 1 0 18.095V4.762C0 3.71.853 2.857 1.905 2.857h3.697l-.739-1.48a.952.952 0 0 1 1.703-.85L7.619 2.63 8.673.526A.952.952 0 0 1 9.95.101z" opacity=".3"/>
        <path d="M7.62 7.619c-1.467 0-2.384 1.587-1.65 2.857.34.59.968.952 1.65.952 1.466 0 2.382-1.587 1.649-2.857a1.904 1.904 0 0 0-1.65-.952zm1.428 4.762H6.19a2.381 2.381 0 0 0-2.377 2.225l-.004.156v.476a.952.952 0 0 0 1.898.111l.006-.111v-.476c0-.23.165-.427.39-.469l.087-.007h2.857c.23 0 .427.164.468.39l.008.086v.476a.952.952 0 0 0 1.898.111l.007-.111v-.476a2.381 2.381 0 0 0-2.225-2.376l-.156-.005z"/>
    </g>
</svg>
