<svg width="20" height="21" viewBox="0 0 20 21" xmlns="http://www.w3.org/2000/svg">
    <g fill="#3F7C5C" fill-rule="nonzero">
        <path d="M14.77 16.968h-9.7a1.07 1.07 0 0 1-1-.71l-4-11.62a1 1 0 0 1 1.54-1.16l4 2.88a.89.89 0 0 0 1.36-.4l2-5.22a1 1 0 0 1 1.93 0l1.94 5.25a.89.89 0 0 0 1.37.4l4.13-3.07a1 1 0 0 1 1.57 1.16l-4.14 11.78a1 1 0 0 1-1 .71z" opacity=".3"/>
        <path d="M12.47 12.738h-5a.75.75 0 1 1 0-1.5h5a.75.75 0 0 1 0 1.5zM15.09 20.078H4.86a.75.75 0 1 1 0-1.5h10.23a.75.75 0 0 1 0 1.5z"/>
    </g>
</svg>
